<svg xmlns="http://www.w3.org/2000/svg" viewBox="0 0 48 48" fill="none">
  <!-- Underwear / lingerie icon -->
  <rect width="48" height="48" rx="12" fill="#FFF1F2"/>
  <!-- Bra top -->
  <path d="M10 18 Q14 14 18 16 C20 17 20 20 20 22 L20 30 L28 30 L28 22 C28 20 28 17 30 16 Q34 14 38 18 L38 26 Q24 30 10 26 Z" fill="#EC4899" opacity="0.75"/>
  <!-- Center bow -->
  <path d="M21 28 L24 30 L27 28" stroke="#BE185D" stroke-width="2" fill="none" stroke-linecap="round"/>
  <!-- Bottom briefs -->
  <path d="M12 30 Q24 38 36 30 L36 36 Q32 40 24 40 Q16 40 12 36 Z" fill="#EC4899" opacity="0.7"/>
  <!-- Elastic waistband -->
  <line x1="12" y1="30" x2="36" y2="30" stroke="#BE185D" stroke-width="2.5" opacity="0.5"/>
  <!-- Lace dots -->
  <circle cx="16" cy="33" r="1" fill="white" opacity="0.4"/>
  <circle cx="24" cy="34" r="1" fill="white" opacity="0.4"/>
  <circle cx="32" cy="33" r="1" fill="white" opacity="0.4"/>
</svg>
