<svg xmlns="http://www.w3.org/2000/svg" viewBox="0 0 48 48" fill="none">
  <!-- Lingerie / pajamas icon -->
  <rect width="48" height="48" rx="12" fill="#FDF2F8"/>
  <!-- Pajama top -->
  <path d="M14 14 L10 20 L14 22 L14 34 L22 34 L22 14 Z" fill="#DB2777" opacity="0.75"/>
  <!-- Pajama top right -->
  <path d="M26 14 L26 34 L34 34 L34 22 L38 20 L34 14 Z" fill="#DB2777" opacity="0.75"/>
  <!-- Top center overlap -->
  <path d="M22 14 L22 34 L26 34 L26 14 Q24 11 22 14 Z" fill="#BE185D" opacity="0.5"/>
  <!-- Collar -->
  <path d="M22 14 Q24 11 26 14 Q25 16 24 17 Q23 16 22 14 Z" fill="#FDF2F8"/>
  <!-- Shorts -->
  <path d="M16 34 L14 42 L22 42 L24 38 L26 42 L34 42 L32 34 Z" fill="#F472B6" opacity="0.75"/>
  <!-- Waistband -->
  <rect x="14" y="33" width="20" height="3" rx="1.5" fill="#BE185D" opacity="0.5"/>
  <!-- Lace trim detail -->
  <path d="M10 21 Q12 22 14 21" stroke="white" stroke-width="1" opacity="0.4"/>
  <path d="M34 21 Q36 22 38 21" stroke="white" stroke-width="1" opacity="0.4"/>
</svg>