<svg xmlns="http://www.w3.org/2000/svg" viewBox="0 0 48 48" fill="none">
  <!-- Shoes icon -->
  <rect width="48" height="48" rx="12" fill="#F0FDF4"/>
  <!-- Left shoe -->
  <path d="M8 28 L8 36 Q8 40 12 40 L20 40 Q24 40 24 36 L24 28 Q24 24 20 24 L12 24 Q8 24 8 28 Z" fill="#10B981" opacity="0.85"/>
  <!-- Right shoe -->
  <path d="M22 26 L22 34 Q22 38 26 38 L36 38 Q40 38 40 34 L40 26 Q40 22 36 22 L26 22 Q22 22 22 26 Z" fill="#059669" opacity="0.85"/>
  <!-- Shoe details -->
  <line x1="8" y1="32" x2="24" y2="32" stroke="white" stroke-width="1" opacity="0.3"/>
  <line x1="22" y1="30" x2="40" y2="30" stroke="white" stroke-width="1" opacity="0.3"/>
</svg>