<svg xmlns="http://www.w3.org/2000/svg" viewBox="0 0 1920 600" preserveAspectRatio="xMidYMid slice">
  <defs>
    <linearGradient id="bg5" x1="0" y1="0" x2="1" y2="1">
      <stop offset="0%" stop-color="#FFFBEB"/>
      <stop offset="50%" stop-color="#FDE68A"/>
      <stop offset="100%" stop-color="#F59E0B"/>
    </linearGradient>
  </defs>
  <rect width="1920" height="600" fill="url(#bg5)"/>
  <circle cx="1600" cy="0" r="500" fill="rgba(245,158,11,0.15)"/>
  <circle cx="300" cy="650" r="450" fill="rgba(245,158,11,0.1)"/>
  <g opacity="0.25" fill="#D97706">
    <rect x="1520" y="200" width="8" height="200" rx="4"/>
    <rect x="1560" y="180" width="8" height="220" rx="4"/>
    <rect x="1600" y="220" width="8" height="180" rx="4"/>
    <rect x="1640" y="160" width="8" height="240" rx="4"/>
    <rect x="1680" y="210" width="8" height="190" rx="4"/>
  </g>
  <rect x="80" y="130" width="520" height="340" rx="16" fill="rgba(255,255,255,0.8)"/>
  <rect x="120" y="170" width="96" height="28" rx="14" fill="#D97706"/>
  <text x="168" y="189" font-family="'PingFang SC','Microsoft YaHei',sans-serif" font-size="13" font-weight="700" fill="white" text-anchor="middle">潮流男装</text>
  <text x="120" y="260" font-family="'PingFang SC','Microsoft YaHei',sans-serif" font-size="48" font-weight="800" fill="#1E2433">潮流男装</text>
  <text x="120" y="325" font-family="'PingFang SC','Microsoft YaHei',sans-serif" font-size="36" font-weight="600" fill="#1E2433" opacity="0.7">街头风格</text>
  <rect x="120" y="380" width="160" height="48" rx="24" fill="#D97706"/>
  <text x="200" y="411" font-family="'PingFang SC','Microsoft YaHei',sans-serif" font-size="15" font-weight="700" fill="white" text-anchor="middle">立即探索</text>
  <text x="120" y="450" font-family="'PingFang SC','Microsoft YaHei',sans-serif" font-size="14" fill="#9CA3AF">型格单品 · 打造你的专属风格</text>
</svg>